<svg xmlns="http://www.w3.org/2000/svg" xmlns:xlink="http://www.w3.org/1999/xlink" version="1.1" x="0px" y="0px" width="34px" height="34px" viewBox="0 0 34 34" enable-background="new 0 0 34 34" xml:space="preserve"><path fill="#C7B82E" d="M28.003 0H5.997C2.685 0 0 2.7 0 5.997v22.005C0 31.3 2.7 34 6 34h22.006 C31.313 34 34 31.3 34 28.002V5.997C34 2.7 31.3 0 28 0z M21.541 13.517l-0.238 3.078h-3.154v10.691h-3.984V16.595h-2.128 v-3.078h2.128v-2.067c0-0.911 0.021-2.317 0.685-3.188c0.697-0.923 1.653-1.55 3.299-1.55c2.684 0 3.8 0.4 3.8 0.4 l-0.53 3.15c0 0-0.886-0.256-1.712-0.256c-0.828 0-1.569 0.297-1.569 1.123v2.403H21.541z"/></svg>