<?xml version="1.0" encoding="utf-8"?>
<!-- Generator: Adobe Illustrator 14.0.0, SVG Export Plug-In . SVG Version: 6.00 Build 43363)  -->
<!DOCTYPE svg PUBLIC "-//W3C//DTD SVG 1.1//EN" "http://www.w3.org/Graphics/SVG/1.1/DTD/svg11.dtd">
<svg version="1.1" id="Layer_1" xmlns="http://www.w3.org/2000/svg" xmlns:xlink="http://www.w3.org/1999/xlink" x="0px" y="0px"
	 width="34px" height="34px" viewBox="0 0 34 34" enable-background="new 0 0 34 34" xml:space="preserve">
<g>
	<path fill="#C7B82E" d="M22.115,16.998c0,2.82-2.294,5.115-5.113,5.115c-2.82,0-5.112-2.295-5.112-5.115
		c0-0.679,0.135-1.325,0.377-1.919H9.475v7.656c0,0.987,0.802,1.792,1.792,1.792h11.472c0.988,0,1.792-0.805,1.792-1.792v-7.656
		h-2.792C21.979,15.673,22.115,16.319,22.115,16.998z"/>
	<path fill="#C7B82E" d="M17.002,20.29c1.814,0,3.292-1.477,3.292-3.292c0-0.717-0.232-1.377-0.625-1.919
		c-0.597-0.83-1.569-1.373-2.667-1.373c-1.099,0-2.071,0.543-2.668,1.373c-0.391,0.542-0.623,1.202-0.623,1.919
		C13.711,18.813,15.187,20.29,17.002,20.29z"/>
	<path fill="#C7B82E" d="M28.003,0H5.997C2.687,0,0,2.685,0,5.997v22.005C0,31.313,2.687,34,5.997,34h22.006
		C31.316,34,34,31.313,34,28.002V5.997C34,2.685,31.316,0,28.003,0z M26.352,15.079v7.656c0,1.993-1.62,3.614-3.613,3.614H11.267
		c-1.993,0-3.615-1.621-3.615-3.614v-7.656v-3.817c0-1.993,1.622-3.614,3.615-3.614h11.472c1.993,0,3.613,1.621,3.613,3.614V15.079z
		"/>
	<polygon fill="#C7B82E" points="24.188,12.972 24.188,10.213 24.188,9.801 23.775,9.803 21.018,9.812 21.027,12.981 	"/>
</g>
</svg>
