<svg xmlns="http://www.w3.org/2000/svg" xmlns:xlink="http://www.w3.org/1999/xlink" version="1.1" id="Layer_1" x="0px" y="0px" viewBox="0 0 107 80" enable-background="new 0 0 107 80" xml:space="preserve">
<path fill="#1B3764" d="M105.6 68.3c-2.8 0-6.2-1-6.8-3.9C98.2 61.8 91.3 18 91.3 18c-0.6-2.9 3-3.9 5.8-3.9c0.8 0 1.4-0.7 1.4-1.5 c0-0.8-0.5-1.5-1.3-1.5c0 0-18.8 0-19 0c-0.6 0-1.2 0.3-1.2 0.9c0 0.6 0 0.8 0 1.4c0 0.6 0.4 1 1 1c1.2 0 3.5 0.8 4.8 2.5L71.1 29.4 c-3.1-3-7.1-4.3-11.8-4.6c5.4-1.7 10-5.7 10-12.1c0-6.5-5.9-10.6-13-10.6c-7.1 0-8 0.9-12.3 0.9S31.6 0.2 31.1 0 c-0.5-0.2-1.3 0.4-1.3 1.3c0 0.9 1.3 1.8 2.5 2.2c1.3 0.5 4.2 1.1 4.2 7.2c0 4 0 11.1 0 19.1L24.1 16.8c1.3-1.6 3.6-2.4 4.8-2.4 c0.7 0 1-0.4 1-1c0-0.6 0-0.9 0-1.4c0-0.6-0.5-0.9-1.2-0.9c-0.2 0-19 0-19 0c-0.7 0-1.3 0.7-1.3 1.5c0 0.8 0.6 1.5 1.4 1.5 c2.8 0 6.5 1 5.8 3.9c0 0-7 43.8-7.5 46.4c-0.6 2.9-4 3.9-6.8 3.9C0.6 68.3 0 69 0 69.8c0 0.8 0.5 1.5 1.3 1.5c0 0 17.7 0 17.9 0 c0.6 0 1.2-0.3 1.2-0.9c0-0.6 0-0.8 0-1.4c0-0.6-0.4-1-1-1c-1.5 0-3.1-1.9-2.7-4.4c0.4-2.5 0.5-3.3 5.5-37.8 c2.9 3.1 8.7 9.2 14.4 15.3c-0.1 16.1-0.1 32-0.2 32.9c0 1.4-0.7 2.4-1.5 2.6c-0.8 0.2-2.2 0.5-2.2 0.5s-0.3 0.5-0.3 1.3 c0.1 0.9 0.4 1.6 0.4 1.6s3.3-0.3 6.7-0.3c2.7 0 4.4 0.1 7.2 0.1C60 79.8 77 68.9 77 49.5c0-5.4-0.6-9.7-1.8-13.2 c4-4.2 7.6-8 9.7-10.2c5 34.3 5.2 35.2 5.5 37.6c0.3 2.5-1.1 4.4-2.7 4.4c-0.7 0-1 0.4-1 1c0 0.6 0 0.8 0 1.4c0 0.6 0.5 0.9 1.2 0.9 c0.2 0 17.9 0 17.9 0c0.7 0 1.3-0.7 1.3-1.5C107 69 106.4 68.3 105.6 68.3z M44.3 7.1c0 0 6.4-1.7 9.8-1.7c4 0 7.9 3.7 7.9 7.3 c0 9.6-13.2 12.1-18.2 12.1C43.8 22.1 44.3 7.1 44.3 7.1z M43.8 28.9c0 0 6.4-1.4 9.7-1.4c2.5 0 8 2.2 11.6 8.1L53.5 47.7l-9.8-10.3 C43.8 32.4 43.8 28.9 43.8 28.9z M43.3 75.9c0-3.6 0.1-16.1 0.2-27.3c4.8 5.1 8.5 9 8.7 9.2c1.2 1.2 1.3 1.2 2.5 0 c0.2-0.2 6.5-6.8 13.5-14.1c0.3 1.7 0.5 3.6 0.5 5.6C68.7 66.4 55.2 75.9 43.3 75.9z"/>
</svg>
