<?xml version="1.0" encoding="utf-8"?>
<!-- Generator: Adobe Illustrator 14.0.0, SVG Export Plug-In . SVG Version: 6.00 Build 43363)  -->
<!DOCTYPE svg PUBLIC "-//W3C//DTD SVG 1.1//EN" "http://www.w3.org/Graphics/SVG/1.1/DTD/svg11.dtd">
<svg version="1.1" id="Layer_1" xmlns="http://www.w3.org/2000/svg" xmlns:xlink="http://www.w3.org/1999/xlink" x="0px" y="0px"
	 width="34px" height="34px" viewBox="0 0 34 34" enable-background="new 0 0 34 34" xml:space="preserve">
<path fill="#C7B82E" d="M28.003,0H5.997C2.687,0,0,2.686,0,5.997v22.006C0,31.313,2.687,34,5.997,34h22.006
	C31.316,34,34,31.313,34,28.003V5.997C34,2.686,31.316,0,28.003,0z M12.353,24.82h-0.002c-0.41,0.41-0.972,0.66-1.595,0.66
	c-0.625,0-1.185-0.252-1.595-0.66l0,0H9.159c0,0,0,0,0.002,0C8.751,24.41,8.5,23.854,8.5,23.231c0-0.621,0.251-1.179,0.661-1.591
	v0.002c0.41-0.41,0.97-0.662,1.595-0.662c0.623,0,1.185,0.252,1.595,0.662c0.412,0.41,0.664,0.968,0.666,1.589
	C13.015,23.853,12.763,24.41,12.353,24.82z M16.457,25.502v-0.006c-0.004-2.128-0.832-4.135-2.333-5.634
	c-1.5-1.502-3.504-2.335-5.622-2.337V14.28c3.09,0,5.891,1.26,7.924,3.294c2.032,2.032,3.289,4.833,3.291,7.928H16.457z
	 M22.245,25.502c-0.006-7.584-6.163-13.754-13.739-13.76V8.498c4.685,0.002,8.93,1.907,12.008,4.988
	c3.08,3.082,4.984,7.328,4.986,12.016H22.245z"/>
</svg>
