<?xml version="1.0" encoding="utf-8"?>
<!-- Generator: Adobe Illustrator 14.0.0, SVG Export Plug-In . SVG Version: 6.00 Build 43363)  -->
<!DOCTYPE svg PUBLIC "-//W3C//DTD SVG 1.1//EN" "http://www.w3.org/Graphics/SVG/1.1/DTD/svg11.dtd">
<svg version="1.1" id="Layer_1" xmlns="http://www.w3.org/2000/svg" xmlns:xlink="http://www.w3.org/1999/xlink" x="0px" y="0px"
	 width="34px" height="34px" viewBox="0 0 34 34" enable-background="new 0 0 34 34" xml:space="preserve">
<path fill="#C7B82E" d="M28.003,0H5.997C2.685,0,0,2.687,0,5.997v22.006C0,31.313,2.685,34,5.997,34h22.006
	C31.313,34,34,31.313,34,28.003V5.997C34,2.687,31.313,0,28.003,0z M24.448,13.178c0.008,0.165,0.01,0.331,0.01,0.498
	c0,5.081-3.864,10.937-10.934,10.937c-2.171,0-4.19-0.637-5.892-1.727c0.301,0.036,0.607,0.053,0.918,0.053
	c1.8,0,3.457-0.614,4.771-1.646c-1.682-0.03-3.101-1.142-3.589-2.667c0.233,0.045,0.476,0.067,0.723,0.067
	c0.352,0,0.69-0.045,1.013-0.136c-1.759-0.353-3.083-1.905-3.083-3.769v-0.047c0.519,0.286,1.111,0.46,1.741,0.479
	c-1.031-0.689-1.71-1.867-1.71-3.198c0-0.705,0.19-1.364,0.521-1.936c1.896,2.328,4.728,3.856,7.922,4.018
	c-0.066-0.282-0.1-0.574-0.1-0.876c0-2.122,1.721-3.844,3.842-3.844c1.106,0,2.105,0.468,2.806,1.214
	c0.877-0.172,1.698-0.491,2.44-0.932c-0.285,0.897-0.896,1.65-1.688,2.126c0.776-0.093,1.517-0.3,2.205-0.605
	C25.852,11.96,25.199,12.637,24.448,13.178z"/>
</svg>
